PathFileType	4	(X/Y/Z)	C:/Users/beibeiliu/ov580/test_trc/capture2\sequence.17_training_dense_right.trc
DataRate	CameraRate	NumFrames	NumMarkers	Units	OrigDataRate	OrigDataStartFrame	OrigNumFrames
120	120	18	19	mm	120	301	400
Frame#	Time	ThumbCMC			ThumbMCP			ThumbIP			ThumbTip			IndexMCP			IndexPIP			IndexTip			MiddleMCP			MiddlePIP			MiddleTip			RingMCP			RingPIP			RingTip			PinkyMCP			PinkyPIP			PinkyTip			BackHand1			BackHand2			BackHand3	
		X0	Y0	Z0	X1	Y1	Z1	X2	Y2	Z2	X3	Y3	Z3	X4	Y4	Z4	X5	Y5	Z5	X6	Y6	Z6	X7	Y7	Z7	X8	Y8	Z8	X9	Y9	Z9	X10	Y10	Z10	X11	Y11	Z11	X12	Y12	Z12	X13	Y13	Z13	X14	Y14	Z14	X15	Y15	Z15	X16	Y16	Z16	X17	Y17	Z17	X18	Y18	Z18	
300	2.5	207.635	20.594	35.6246	220.051	29.6697	2.91092	219.943	16.4263	-25.9222	201.362	-2.04577	-32.0219	237.415	-26.3242	-18.1043	238.672	-28.17	-48.5963	218.831	-3.2654	-63.1886	226.842	-41.3214	-25.5804	225.952	-36.9092	-55.7779	198.591	-9.34026	-59.0552	207.429	-48.9889	-23.8137	204.786	-42.0982	-54.6683	190.466	-12.6849	-53.4065	187.829	-53.4856	-19.2996	186.926	-44.3651	-49.524	179.113	-16.9479	-52.8099	195.139	-39.0865	23.0349	184.914	-30.8309	49.4945	214.244	-13.8873	38.5551	
301	2.50833	213.535	25.94	39.4703	222.753	27.5902	6.51788	226.915	17.9351	-20.9668	208.186	-7.41253	-28.081	246.544	-25.133	-10.0389	249.634	-28.4955	-41.1432	228.65	-7.21809	-58.2203	235.922	-43.8638	-19.9976	235.261	-37.884	-50.9531	209.812	-9.84484	-54.6704	219.419	-48.977	-20.2306	218.793	-43.6722	-48.0423	202.016	-12.2416	-49.1099	200.453	-51.5102	-13.9581	200.095	-49.4523	-41.2559	188.426	-16.055	-50.6304	198.41	-37.9618	28.8986	187.193	-30.1372	56.169	216.771	-15.8751	40.2522	
302	2.51667	213.551	24.6714	40.1427	225.145	29.2093	10.5717	232.191	18.1308	-15.6812	218.092	-2.88393	-23.8551	254.033	-19.466	-2.69308	257.356	-27.0477	-34.8521	239.077	-5.99609	-54.0664	244.337	-37.4063	-11.0083	245.047	-36.9931	-44.6962	220.999	-9.83356	-52.2541	228.794	-50.0239	-14.4051	227.458	-43.2262	-44.4129	208.826	-15.0433	-47.3127	209.602	-51.6476	-8.90186	211.588	-48.7136	-39.0039	199.952	-20.4092	-47.3927	208.962	-35.68	31.6137	192.3	-26.5561	59.1096	222.575	-11.9135	45.4441	
303	2.525	215.785	31.6453	42.7938	228.877	33.4817	11.4639	238.21	23.1309	-15.105	227.294	0.208346	-25.1897	258.675	-14.3783	2.82054	269.758	-19.5716	-28.635	252.239	-5.73495	-50.3146	254.107	-35.1036	-7.47171	258.676	-28.8872	-40.1617	233.768	-6.98131	-49.0983	236.348	-42.2299	-6.24248	238.905	-40.8473	-40.2369	219.909	-11.8795	-45.4797	219.181	-51.6605	-6.28647	223.41	-46.9702	-33.328	214.205	-15.6914	-44.8952	215.566	-30.897	32.7457	197.899	-23.4766	58.1007	226.473	-3.148	49.7741	
304	2.53333	215.088	34.8991	44.0227	229.847	39.5469	15.152	239.626	27.4149	-8.28886	231.737	5.80373	-18.953	269.135	-6.0854	6.43617	277.646	-12.6092	-19.8893	256.954	1.20582	-45.5123	263.577	-24.9855	-0.625625	267.335	-24.8636	-32.3084	241.54	1.9115	-45.0669	248.797	-35.7024	-4.29813	250.653	-31.7803	-36.3842	230.433	-9.51714	-43.1064	227.375	-46.6187	-1.83254	234.895	-42.9176	-28.0432	220.142	-17.8736	-42.8351	220.1	-26.884	36.4068	202.426	-21.2527	59.1313	229.777	2.82427	55.4816	
305	2.54167	214.762	41.1501	46.1216	228.451	49.0401	18.0934	242.69	33.5596	-6.39337	235.337	9.61689	-15.5478	270.671	3.97791	12.0403	284.693	-1.97119	-14.7268	266.914	9.84427	-41.3675	267.886	-14.8054	5.29467	275.751	-12.8034	-28.4309	250.561	7.29551	-40.9206	256.63	-28.7514	-1.07108	262.019	-25.5453	-28.4697	239.675	-1.3729	-39.8559	232.055	-39.3772	1.94675	244.365	-34.4418	-28.1989	233.759	-10.443	-37.6082	222.281	-20.9689	40.5688	204.737	-19.1505	60.3737	230.395	10.1452	56.6663	
306	2.55	216.14	48.8374	47.2491	230.084	57.2699	17.9719	245.851	46.6723	-6.53054	240.479	21.5698	-15.294	279.061	16.2359	14.391	287.777	9.55527	-12.5243	269.258	20.1595	-38.0858	274.833	-5.09587	7.53843	282.873	-0.109758	-25.3404	254.682	15.2657	-37.7084	261.661	-17.7381	3.73067	269.279	-13.9054	-25.4488	242.685	5.65945	-37.7824	244.37	-28.2058	5.34771	254.676	-28.1412	-20.6835	238.699	-0.459902	-38.1896	227.719	-12.048	43.1168	205.615	-12.2122	62.2185	232.552	13.8012	55.6469	
307	2.55833	214.267	54.4724	46.9213	228.267	62.7553	19.7183	243.862	56.1947	-2.17615	244.586	25.8022	-15.3495	279.105	24.6853	15.0014	293.083	28.2722	-13.2344	275.118	36.8085	-35.1671	281.48	8.80781	9.79738	287.906	12.596	-22.6151	260.233	27.2204	-36.5622	268.721	-9.70018	5.83836	276.624	-0.912854	-22.1595	248.979	16.9076	-34.1598	250.19	-22.214	6.02345	262.757	-14.698	-20.5685	246.904	9.12798	-33.6327	232.848	-6.68631	40.8065	214.002	-2.04882	60.4305	234.769	23.8079	58.2348	
308	2.56667	212.722	58.9956	46.5601	224.1	73.2636	21.6863	241.317	66.9258	-1.75862	243.521	38.0087	-12.4952	278.734	39.5874	17.7223	291.972	39.6081	-12.1008	275.934	46.7811	-33.3708	284.377	19.7704	9.99365	292.063	23.4969	-17.8986	261.109	37.7122	-34.313	275.441	2.87586	6.92672	280.583	8.04612	-21.5597	255.633	26.8229	-31.78	254.04	-7.42165	8.97853	269.522	-4.5672	-17.6103	248.703	19.0932	-33.3728	237.227	2.49592	41.805	217.445	1.75779	60.9075	234.049	33.3661	57.5428	
309	2.575	209.643	65.5743	46.5045	225.785	80.588	19.1343	243.114	74.4123	-4.90623	241.596	47.3172	-10.7818	280.947	57.1662	17.9345	293.394	55.3418	-8.48898	272.401	61.4098	-32.9197	282.952	33.8364	13.4383	291.991	39.2863	-20.6423	260.924	47.8798	-33.4959	279.797	18.1469	7.31723	284.597	22.3268	-21.4635	253.005	36.0992	-31.5342	261.84	0.598213	7.71306	275.105	7.41098	-15.906	253.284	27.085	-32.8987	238.452	12.7227	45.3118	218.011	6.52437	61.9208	235.813	39.5954	57.8133	
310	2.58333	206.915	74.4683	44.6337	218.216	85.6888	19.8573	235.906	86.2257	-3.72242	240.388	55.7456	-10.4761	278.513	69.9528	17.5812	291.3	71.0156	-7.43315	269.987	71.8125	-31.8006	283.498	49.4088	12.5212	292.989	52.8539	-17.6697	260.145	61.9096	-33.966	278.209	28.1336	9.97171	284.985	40.1639	-20.203	254.36	48.3358	-29.1933	267.533	11.5078	9.26666	276.861	24.7615	-15.9829	251.086	37.4262	-30.8484	243.677	23.0545	44.5816	220.154	16.8737	61.2255	233.428	50.0674	56.2853	
311	2.59167	203.127	77.2979	43.6214	210.946	95.2677	19.7221	229.796	92.0829	-1.27259	239.564	66.657	-12.9481	273.888	81.3583	17.9527	287.661	86.1652	-7.79246	262.005	86.9108	-34.4351	283.721	66.138	11.3863	291.5	68.5932	-19.0528	259.301	70.3447	-35.424	279.293	45.5884	9.10212	284.903	52.2371	-22.6006	251.997	56.9345	-29.864	267.927	22.3999	8.74595	279.869	32.0341	-18.7145	253.115	47.5425	-30.009	243.691	31.6217	42.5494	224.117	22.7247	59.9838	230.346	57.1996	55.9547	
312	2.6	196.532	82.5477	42.2236	206.111	100.693	17.8452	226.624	102.096	-5.99663	236.731	72.7183	-12.8859	269.149	96.9477	15.7452	281.714	98.7326	-12.234	261.163	94.6503	-34.5909	279.684	79.4323	10.897	287.148	84.459	-20.9698	255.111	80.0132	-36.0836	282.335	58.1299	6.35359	283.322	64.7878	-22.205	248.752	65.8248	-30.6843	272.593	39.1696	7.90049	278.7	48.4497	-18.6081	248.055	52.6184	-33.54	246.885	38.12	43.8271	226.296	34.724	59.1956	229.596	69.4226	55.9971	
313	2.60833	193.655	86.6211	38.6373	196.722	107.465	14.4155	217.016	110.583	-7.80051	234.399	84.5783	-18.1123	259.648	104.813	13.2672	271.872	114.433	-15.1863	251.68	104.804	-37.6368	276.213	89.5751	7.74321	280.571	95.662	-23.4714	248.163	89.2422	-38.5536	276.83	69.1495	5.8507	279.667	76.977	-25.6723	246.268	72.8835	-33.6031	272.621	51.813	5.23907	275.573	63.3777	-22.2575	247.52	60.6476	-37.1136	246.426	53.436	39.4342	225.434	37.2835	60.3719	224.689	74.7463	53.1998	
314	2.61667	179.739	92.4946	37.1103	183.569	109.243	11.4027	206.736	114.68	-12.1788	224.606	94.516	-20.5688	247.25	123.985	6.46656	256.99	131.243	-19.9611	237.522	114.9	-42.2735	263.206	109.862	2.99005	265.871	114.46	-30.9002	239.748	96.2012	-41.8636	269.655	90.1187	0.0939096	268.812	96.3961	-28.8779	235.523	84.8683	-34.5528	264.421	70.2829	2.98985	269.42	79.5733	-25.2245	240.325	76.2633	-38.1735	244.413	65.7769	36.4399	223.409	55.2766	55.808	215.306	87.9637	49.1703	
315	2.625	172.431	91.1222	32.5821	170.743	109.917	6.22575	189.353	117.82	-16.6014	212.985	104.603	-29.0829	230.01	133.289	-0.354894	240.902	140.353	-26.3825	219.721	121.151	-50.5913	246.993	123.969	-2.82773	253.334	125.461	-36.9579	226.42	106.74	-46.8187	261.408	106.888	-6.12938	258.846	109.202	-34.2473	226.887	91.7479	-38.219	262.261	87.0759	-2.92069	260.185	93.1557	-30.6274	231.066	78.564	-41.9938	237.905	81.0888	33.297	220.638	63.5428	53.5699	208.701	97.1131	44.5717	
316	2.63333	165.773	91.7366	29.7456	165.193	107.966	2.35195	176.002	118.13	-20.4163	203.519	105.809	-32.6436	216.83	141.824	-7.89323	223.513	146.721	-36.6595	211.72	121.991	-54.3604	235.522	132.896	-10.4768	242.343	133.778	-40.1571	219.288	104.487	-50.7135	249.764	116.158	-10.4627	250.446	114.929	-40.7911	223.195	90.0179	-41.9546	255.888	96.5222	-6.85323	257.268	100.836	-33.1212	228.602	82.2549	-46.2405	230.677	86.0338	32.9812	218.229	69.9506	54.6952	199.429	102.686	39.9892	
317	2.64167	163.1	92.6538	24.5842	157.886	109.658	-2.41615	172.56	118.678	-27.8859	195.965	103.786	-31.199	208.862	142.564	-11.6372	216.799	148.149	-39.3109	205.436	124.341	-58.7314	231.307	135.997	-16.5797	234.654	131.08	-47.062	212.145	102.077	-51.6673	239.709	119.197	-11.4028	243.21	116.945	-45.3908	217.891	93.3528	-44.3592	251.662	99.5104	-7.06204	251.84	104.938	-36.3297	225.558	88.7765	-45.6785	230.46	93.7296	28.2803	218.168	76.4666	51.2846	195.395	103.841	35.4927	
